@startuml
'https://plantuml.com/class-diagram
!include https://raw.githubusercontent.com/plantuml-stdlib/C4-PlantUML/master/C4_Context.puml

interface Reiscomponent {
    +gepland(): void
    +geregeld(): void
    +betaald(): void
    +uitgevoerd(): void
}

class Reiziger {
    -telefoonnummer: Telefoonnummer
    -postcode: Postcode
    -huisnummer: Huisnummer
    +maakTrip(): Trip
    +annuleerTrip(trip: Trip): void
    +pasTripAan(trip: Trip): void
    +betaalTrip(trip: Trip): void
}

class Reisbureaumedewerker {
    -functieTitel: String
    +maakReservering(trip: Trip, reiziger: Reiziger): Reservering
}

class TriptopGebruiker {
    -voornaam:String
    -tussenvoegsels:String
    -achternaam:String
    -email:Email
    -wachtwoord:Wachtwoord
}

class Trip {
    -startDatum:Datum
    -eindDatum:Datum
    -budget:double
    +berekenDuur(): int
    +berekenPrijs(): double
    +bepaalDuurzaamheidsScore():DuurzaamheidsScore
    +annuleer(): void
    +pasAan(): void
    +betaal(): void
}

class Excursie {
    -titel:String
    -datum:Datum
    -startTijd:Tijd
    -eindTijd:Tijd
    -prijs:double
}

class Verblijf {
    -startDatum:Datum
    -eindDatum:Datum
    +berekenVerblijfsduur(): int
}

class Verblijfplaats {
    -locatie:Locatie
    -prijs:double
}

class Locatie {
    -lat:Coordinaat
    -lon:Coordinaat
}

class Reis {
    -startDatum:Datum
    -eindDatum:Datum
    -prijs:double
    -vervoer:Vervoer
}

class Reservering {
    -reserveringsnummer: String
    -status: ReserveringsStatus
    +bevestigen(): void
}

class Vervoer implements Reiscomponent {
    -type: VervoerType
    +gepland(): void
    +geregeld(): void
    +betaald(): void
    +uitgevoerd(): void
}

class Activiteit implements Reiscomponent {
    -titel: String
    -datum: Datum
    +gepland(): void
    +geregeld(): void
    +betaald(): void
    +uitgevoerd(): void
}

class EtenEnDrinken implements Reiscomponent {
    -restaurant: String
    -datum: Datum
    +gepland(): void
    +geregeld(): void
    +betaald(): void
    +uitgevoerd(): void
}

enum ReserveringsStatus {
    BEVESTIGD
    GEANNULEERD
    INAFWACHTING
}

enum VervoerType {
    HUURAUTO
    VLIEGTUIG
    TREIN
    BUS
}

enum DuurzaamheidsScore {
    GROEN
    GEEL
    ROOD
}

TriptopGebruiker <|-- Reisbureaumedewerker
TriptopGebruiker <|-- Reiziger
Reisbureaumedewerker "1" -- "1..*"  Reiziger : klanten

Reis "1..*" -- "1"  Locatie : bestemming
Reis "1..*" -- "1"  Locatie : vertrek
Trip "1" -- "2..*"  Reis : verplaatsing
Trip "1" -- "0..*"  Excursie : excursie
Trip "1" -- "0..*"  Verblijf : verblijf
Trip "1" -- "1..*"  Reiziger : plannen
Trip "1" -- "1..*"  Reisbureaumedewerker : verkopen
Verblijf "1" -- "1"  Verblijfplaats : verblijfplaats
Reservering "1" -- "1"  Trip : trip
Reservering "1" -- "1..*"  Reiziger : reiziger

Trip "1" -- "1..*"  Reiscomponent : componenten
Vervoer "1" -- "1"  Reiscomponent : component
Activiteit "1" -- "1"  Reiscomponent : component
EtenEnDrinken "1" -- "1"  Reiscomponent : component

@enduml
